<svg xmlns="http://www.w3.org/2000/svg" viewBox="0 0 64 64" fill="none">
  <!-- Shield -->
  <path d="M32 4L8 16v16c0 14.4 10.24 27.84 24 32 13.76-4.16 24-17.6 24-32V16L32 4z" fill="#7C3AED"/>
  <path d="M32 8L12 18v14c0 12.4 8.64 24.04 20 27.6 11.36-3.56 20-15.2 20-27.6V18L32 8z" fill="#1E1B4B"/>
  <!-- Git branch icon -->
  <circle cx="32" cy="22" r="4" fill="#A78BFA"/>
  <circle cx="24" cy="40" r="4" fill="#A78BFA"/>
  <circle cx="40" cy="40" r="4" fill="#A78BFA"/>
  <line x1="32" y1="26" x2="32" y2="34" stroke="#A78BFA" stroke-width="2.5" stroke-linecap="round"/>
  <path d="M32 34c0 3.3-2.7 6-6 6h-2" stroke="#A78BFA" stroke-width="2.5" stroke-linecap="round" fill="none"/>
  <path d="M32 34c0 3.3 2.7 6 6 6h2" stroke="#A78BFA" stroke-width="2.5" stroke-linecap="round" fill="none"/>
  <!-- Lock keyhole -->
  <circle cx="32" cy="22" r="2" fill="#1E1B4B"/>
</svg>
